<svg xmlns="http://www.w3.org/2000/svg" xmlns:xlink="http://www.w3.org/1999/xlink"  version="1.1" width="512" height="512" x="0" y="0" viewBox="0 0 512 512" style="enable-background:new 0 0 512 512" xml:space="preserve" class=""><g transform="matrix(1.1600000000000001,0,0,1.1600000000000001,-40.95988891601553,-40.95931030273425)"><linearGradient id="linear-gradient" gradientUnits="userSpaceOnUse" x1="338.929" x2="448.148" y1="118.376" y2="118.376"><stop offset="0" stop-color="#e3d2cf"/><stop offset="1" stop-color="#ccb7be"/></linearGradient><radialGradient id="radial-gradient" cx="54.478" cy="90.593" gradientUnits="userSpaceOnUse" r="402.546"><stop offset="0" stop-color="#807792"/><stop offset=".33484" stop-color="#7d748f"/><stop offset=".60619" stop-color="#746b85"/><stop offset=".85458" stop-color="#655c74"/><stop offset="1" stop-color="#594f66"/></radialGradient><linearGradient id="linear-gradient-2" gradientUnits="userSpaceOnUse" x1="420.72" x2="473.93" y1="96.04" y2="96.04"><stop offset="0" stop-color="#fbe17a"/><stop offset="1" stop-color="#f7a779"/></linearGradient><g id="Bomb"><path d="m346 141.53027-7.07128-7.07027 20.7456-20.74512a27.21333 27.21333 0 0 1 38.52344.002 17.22628 17.22628 0 0 0 24.3833.001l18.49561-18.49511 7.07133 7.07023-18.49219 18.49219a27.21986 27.21986 0 0 1 -38.53516-.00391 17.22019 17.22019 0 0 0 -24.373.00195z" fill="url(#linear-gradient)" data-original="url(#linear-gradient)"/><path d="m370.03 153.68994-21.63-21.62988-21.63-21.63013a13.88793 13.88793 0 0 0 -19.65 0l-29.52 29.52007a161.47671 161.47671 0 0 0 -192.34 26.97c-62.8 62.71-62.94 165.27-.31 228.14014a161.43567 161.43567 0 0 0 255.56-192.2002l29.52-29.52a13.9058 13.9058 0 0 0 0-19.65z" fill="url(#radial-gradient)" data-original="url(#radial-gradient)"/><path d="m457.19 86.17993c-5.94-5.93994-1.47-16.74-9.86-16.74-8.4 0-3.18 13-10.46 17.18994-8.75 5.06006-16.15 1.01026-16.15 9.41016s10.81 3.91992 16.75 9.85986c5.93 5.93994 1.46 16.74024 9.86 16.74024 8.39 0 3.92-10.8003 9.86-16.74024s16.74-1.46 16.74-9.85986-10.8-3.91991-16.74-9.8601z" fill="url(#linear-gradient-2)" data-original="url(#linear-gradient-2)"/><g fill="#e6e5fa"><path d="m238.17005 154.1499a107.93605 107.93605 0 0 0 -85.78 0c-7.78 3.37012-10.96 11.40015-7.58 16.58008 3.38 5.22 10.62 6.57007 16.52 4.04a85.43773 85.43773 0 0 1 67.9 0c5.81692 2.50182 13.09666 1.24515 16.52-4.04 3.38995-5.17993.19995-13.20998-7.58-16.58008z" fill="#e6e5fa" data-original="#e6e5fa" class=""/><path d="m123.05 181.39014a11.23486 11.23486 0 1 0 11.24006 11.23 11.23477 11.23477 0 0 0 -11.24006-11.23z" fill="#e6e5fa" data-original="#e6e5fa" class=""/></g></g></g></svg>