<svg width="32" height="32" viewBox="0 0 32 32" fill="none" xmlns="http://www.w3.org/2000/svg">
<path d="M30.9498 3.66339H26.5954V1.05356C26.5952 0.784372 26.4887 0.526279 26.2995 0.335937C26.1102 0.145595 25.8536 0.0385604 25.586 0.0383301H6.4125C6.14478 0.0383301 5.88802 0.145291 5.69872 0.335683C5.50941 0.526075 5.40306 0.784301 5.40306 1.05356V3.66339H1.04868C0.916155 3.66339 0.784932 3.68965 0.662509 3.74069C0.540086 3.79172 0.428861 3.86651 0.335194 3.96079C0.241528 4.05508 0.167254 4.167 0.116619 4.29017C0.0659839 4.41334 0.0399803 4.54533 0.040094 4.67861V8.43851C0.0332004 10.3555 0.675501 12.2177 1.86126 13.7186C3.04702 15.2195 4.70557 16.2696 6.56388 16.696C7.21806 17.9755 8.12306 19.1086 9.22434 20.0269C10.3256 20.9452 11.6004 21.6297 12.9718 22.0392V24.7291C11.8671 25.2975 10.9391 26.1607 10.2895 27.224C9.6399 28.2873 9.29364 29.5098 9.28861 30.7578V30.9457C9.28884 31.2149 9.39526 31.473 9.58452 31.6633C9.77378 31.8537 10.0304 31.9607 10.2981 31.9609H21.716C21.8485 31.9609 21.9797 31.9347 22.1021 31.8836C22.2246 31.8326 22.3358 31.7578 22.4295 31.6635C22.5231 31.5693 22.5974 31.4573 22.648 31.3342C22.6987 31.211 22.7247 31.079 22.7246 30.9457V30.7578C22.7203 29.5063 22.3728 28.2803 21.7204 27.2147C21.068 26.149 20.1359 25.285 19.0267 24.7178V22.0392C20.3977 21.6286 21.672 20.9436 22.7733 20.0254C23.8746 19.1073 24.7801 17.9748 25.4354 16.696C27.2936 16.2696 28.952 15.2196 30.1378 13.7189C31.3235 12.2182 31.9659 10.3562 31.9592 8.43938V4.67861C31.959 4.40943 31.8526 4.15134 31.6633 3.961C31.4741 3.77065 31.2174 3.66362 30.9498 3.66339ZM2.05899 8.43851V5.69297H5.40306V12.6203C5.40042 12.7512 5.41056 12.882 5.43333 13.0109L5.4636 13.2441C5.47069 13.3613 5.48748 13.4777 5.51377 13.5921L5.55875 13.8304C5.5704 13.946 5.59418 14.06 5.62968 14.1706C5.62709 14.1957 5.62709 14.2211 5.62968 14.2463C4.55155 13.7132 3.64458 12.8854 3.01273 11.8577C2.38089 10.8301 2.04975 9.64414 2.05726 8.4359L2.05899 8.43851ZM29.9421 8.43851C29.9463 9.65108 29.6093 10.8401 28.9701 11.8682C28.3309 12.8964 27.4156 13.7217 26.3298 14.2489V14.1732C26.3418 14.0599 26.3635 13.9478 26.3947 13.8383L26.4406 13.5947C26.4502 13.4778 26.4669 13.3615 26.4907 13.2467L26.521 13.0136C26.516 12.8826 26.5262 12.7515 26.5513 12.6229C26.5674 12.5578 26.5674 12.4897 26.5513 12.4246V5.69297H29.8867L29.9421 8.43851Z" fill="white"/>
</svg>
