<svg xmlns="http://www.w3.org/2000/svg" xmlns:xlink="http://www.w3.org/1999/xlink" version="1.1" width="512" height="512" x="0" y="0" viewBox="0 0 512 512" style="enable-background:new 0 0 512 512" xml:space="preserve"><g><g><path d="m108.408 512h-6.877c-13.159 0-23.826-10.667-23.826-23.826v-464.348c.001-13.159 10.668-23.826 23.826-23.826h6.877c13.159 0 23.826 10.667 23.826 23.826v464.349c-.001 13.158-10.668 23.825-23.826 23.825z" fill="#544f57" data-original="#544f57"/><path d="m117.429 510.228c-2.782 1.144-5.831 1.772-9.024 1.772h-6.871c-13.166 0-23.828-10.662-23.828-23.828v-464.344c0-13.166 10.662-23.828 23.828-23.828h6.871c3.194 0 6.243.628 9.024 1.772-8.695 3.544-14.814 12.084-14.814 22.056v464.344c0 9.972 6.12 18.512 14.814 22.056z" fill="#454045" data-original="#454045"/><path d="m308.08 282.533c-9.933 34.314 5.912 71.661 34.89 100.639l42.209-55.56-2.907-63.283-87.082-71.646z" fill="#c32430" data-original="#c32430"/><path d="m361.615 69.846v237.663c-61.698-41.104-142.371-45.802-256.649-9.261-8.88 2.833-17.966 5.924-27.259 9.261v-237.663c9.292-3.338 18.378-6.428 27.259-9.261 52.014-16.638 97.064-24.724 136.54-24.724 47.245 0 86.494 11.589 120.109 33.985z" fill="#da4a54" data-original="#da4a54"/><path d="m104.966 60.585v237.663c-8.88 2.833-17.966 5.924-27.259 9.261v-237.663c9.293-3.337 18.379-6.428 27.259-9.261z" fill="#c32430" data-original="#c32430"/><path d="m434.294 159.575v237.663c-26.579 2.277-49.171 1.112-68.342-2.267-39.157-6.923-48.975-59.009-14.989-79.653 6.995-4.255 10.652-7.809 10.652-7.809l-28.164-45.866 28.164-105.324c1.401.392 2.843.721 4.337.979 19.172 3.39 41.764 4.554 68.342 2.277z" fill="#da4a54" data-original="#da4a54"/></g></g></svg>