<svg xmlns="http://www.w3.org/2000/svg" viewBox="0 0 257.29 369"><path d="M149.48,440.5h-5a17.17,17.17,0,0,1-17.17-17.17V88.67A17.17,17.17,0,0,1,144.52,71.5h5a17.17,17.17,0,0,1,17.17,17.17V423.33A17.17,17.17,0,0,1,149.48,440.5Z" transform="translate(-127.35 -71.5)" style="fill:#544f57"/><path d="M156,439.22a16.93,16.93,0,0,1-6.5,1.28h-4.95a17.17,17.17,0,0,1-17.18-17.17V88.67A17.17,17.17,0,0,1,144.53,71.5h4.95a16.93,16.93,0,0,1,6.5,1.28,17.15,17.15,0,0,0-10.67,15.89V423.33A17.15,17.15,0,0,0,156,439.22Z" transform="translate(-127.35 -71.5)" style="fill:#454045"/><path d="M384.65,122.15V295.64c-55.92-30-129-33.44-232.59-6.76Q140,292,127.35,295.64V122.15q12.63-3.66,24.71-6.76c47.14-12.14,88-18,123.74-18C318.61,97.34,354.18,105.8,384.65,122.15Z" transform="translate(-127.35 -71.5)" style="fill:#da4a54"/><path d="M147,115.62V290q-9.6,3.12-19.65,6.8V122.42q10.05-3.67,19.65-6.8Z" transform="translate(-127.35 -71.5)" style="fill:#c32430"/></svg>