<svg xmlns="http://www.w3.org/2000/svg" xmlns:xlink="http://www.w3.org/1999/xlink" viewBox="0 0 226 226"><defs><linearGradient id="a" y1="113" x2="226" y2="113" gradientUnits="userSpaceOnUse"><stop offset="0" stop-color="#339af0"/><stop offset="0.59" stop-color="#339af0"/></linearGradient><linearGradient id="b" x1="27.22" y1="169.16" x2="56.85" y2="169.16" gradientTransform="matrix(1.16, 0, 0, -1.16, 115.52, 267.92)" gradientUnits="userSpaceOnUse"><stop offset="0" stop-color="#e3d2cf"/><stop offset="1" stop-color="#ccb7be"/></linearGradient><radialGradient id="c" cx="-49.95" cy="176.7" r="109.21" gradientTransform="matrix(1.16, 0, 0, -1.16, 115.52, 267.92)" gradientUnits="userSpaceOnUse"><stop offset="0" stop-color="#807792"/><stop offset="0.33" stop-color="#7d748f"/><stop offset="0.61" stop-color="#746b85"/><stop offset="0.85" stop-color="#655c74"/><stop offset="1" stop-color="#594f66"/></radialGradient><linearGradient id="d" x1="49.41" y1="175.22" x2="63.85" y2="175.22" gradientTransform="matrix(1.16, 0, 0, -1.16, 115.52, 267.92)" gradientUnits="userSpaceOnUse"><stop offset="0" stop-color="#fbe17a"/><stop offset="1" stop-color="#f7a779"/></linearGradient></defs><rect width="226" height="226" rx="113" style="fill:url(#a)"/><path d="M149.32,79l-2.22-2.23,6.53-6.53a8.57,8.57,0,0,1,12.11,0h0a5.42,5.42,0,0,0,7.67,0h0l5.82-5.83,2.23,2.23-5.82,5.82a8.56,8.56,0,0,1-12.11,0h0a5.42,5.42,0,0,0-7.66,0h0Z" style="fill:url(#b)"/><path d="M156.89,82.8,150.08,76l-6.81-6.81a4.36,4.36,0,0,0-6.18,0h0l-9.29,9.29a50.79,50.79,0,1,0,19.8,19.8L156.89,89a4.39,4.39,0,0,0,0-6.19Z" style="fill:url(#c)"/><path d="M184.31,61.56c-1.86-1.87-.46-5.27-3.1-5.27s-1,4.09-3.29,5.41c-2.75,1.59-5.08.32-5.08,3s3.4,1.24,5.27,3.1.46,5.27,3.1,5.27,1.24-3.4,3.1-5.27,5.27-.45,5.27-3.1S186.18,63.43,184.31,61.56Z" style="fill:url(#d)"/><path d="M115.39,83a34,34,0,0,0-27,0C86,84,85,86.54,86,88.17a4.22,4.22,0,0,0,5.2,1.27,26.91,26.91,0,0,1,21.37,0,4.2,4.2,0,0,0,5.19-1.27C118.84,86.54,117.84,84,115.39,83Z" style="fill:#e6e5fa"/><path d="M79.16,91.52a3.54,3.54,0,1,0,3.54,3.54,3.54,3.54,0,0,0-3.54-3.54Z" style="fill:#e6e5fa"/></svg>