<svg xmlns="http://www.w3.org/2000/svg" xmlns:xlink="http://www.w3.org/1999/xlink" version="1.1" width="512" height="512" x="0" y="0" viewBox="0 0 32 32" style="enable-background:new 0 0 512 512" xml:space="preserve" class=""><g><g id="Layer_2" data-name="Layer 2"><path d="m7 31a1 1 0 0 1 -1-1v-28a1 1 0 0 1 2 0v28a1 1 0 0 1 -1 1z" fill="#f95b53" data-original="#f95b53"/><path d="m25.87 15.5a1 1 0 0 1 0 1 1 1 0 0 1 -.87.5h-18a1 1 0 0 1 -1-1v-14a1 1 0 0 1 1-1h18a1 1 0 0 1 .87.5 1 1 0 0 1 0 1l-3.72 6.5z" fill="#ffc166" data-original="#ffc166" class=""/><path d="m22.87 15.5a1 1 0 0 1 0 1 1 1 0 0 1 -.87.5h-16v-16h16a1 1 0 0 1 .87.5 1 1 0 0 1 0 1l-3.72 6.5z" fill="#ffd64f" data-original="#ffd64f" class=""/></g></g></svg>