<svg xmlns="http://www.w3.org/2000/svg" xmlns:xlink="http://www.w3.org/1999/xlink" viewBox="0 0 226 226"><defs><linearGradient id="a" y1="113" x2="226" y2="113" gradientUnits="userSpaceOnUse"><stop offset="0" stop-color="#339af0"/><stop offset="0.59" stop-color="#339af0"/></linearGradient></defs><rect width="226" height="226" rx="113" style="fill:url(#a)"/><path d="M137.07,90l-2.88-1.18a37.81,37.81,0,0,1,4-8,13.87,13.87,0,0,1,7.62-5.6,19.52,19.52,0,0,1,4.44-.45,20,20,0,0,0,3.37-.27,9.07,9.07,0,0,0,6.6-5.84l2.95,1a12.1,12.1,0,0,1-8.93,7.9,23.27,23.27,0,0,1-3.91.33,16.85,16.85,0,0,0-3.75.36,10.87,10.87,0,0,0-5.86,4.39A35.82,35.82,0,0,0,137.07,90Z" style="fill:#ebf0f3"/><path d="M150.71,90.21l-14.8-14.79a2.46,2.46,0,0,0-3.46,0l-5.92,5.91a46.46,46.46,0,1,0,18.26,18.26l5.92-5.92a2.44,2.44,0,0,0,0-3.45Z" style="fill:#3a556a"/><path d="M150.71,90.22,147,86.49a2.36,2.36,0,0,1-.7,1.64l-5.93,5.93A46.47,46.47,0,0,1,66.8,149.35c-.37-.37-.75-.76-1.1-1.15a46.47,46.47,0,0,0,79.09-48.6l5.92-5.93A2.44,2.44,0,0,0,150.71,90.22Z" style="fill:#2f4859"/><path d="M178.4,68.71c-5.18,1-6.7,2-1.44,5.8-6.4-1.11-6,.62-3,4.95-4.33-3-6.07-3.37-4.95,3-3.81-5.26-4.78-3.74-5.8,1.44-1-5.18-2-6.7-5.81-1.44,1.11-6.39-.62-6-4.95-3,3-4.33,3.38-6.06-3-4.95,5.26-3.81,3.74-4.78-1.44-5.8,5.18-1,6.7-2,1.44-5.81,6.4,1.11,6-.62,3-4.95,4.33,3,6.06,3.38,4.95-3,3.81,5.26,4.78,3.75,5.81-1.44,1,5.19,2,6.7,5.8,1.44-1.11,6.4.62,6,4.95,3-3,4.33-3.38,6.06,3,4.95C171.7,66.71,173.22,67.68,178.4,68.71Z" style="fill:#e56353"/><path d="M171.44,68.71c-2.81.55-3.63,1.08-.77,3.15-3.47-.6-3.27.33-1.64,2.69-2.35-1.63-3.29-1.84-2.69,1.64-2.07-2.86-2.6-2-3.15.77-.56-2.81-1.09-3.63-3.15-.77.6-3.48-.34-3.27-2.69-1.64,1.62-2.36,1.83-3.29-1.64-2.69,2.86-2.07,2-2.6-.78-3.15,2.81-.56,3.64-1.09.78-3.15,3.47.6,3.27-.34,1.64-2.69,2.35,1.62,3.29,1.83,2.69-1.64,2.06,2.85,2.59,2,3.15-.78.55,2.81,1.09,3.64,3.15.78-.6,3.47.34,3.26,2.69,1.64-1.63,2.35-1.83,3.29,1.64,2.69-2.86,2.06-2,2.59.77,3.15Z" style="fill:#d15241"/><path d="M166.53,68.71c-1.14.22-1.47.44-.31,1.27-1.41-.24-1.32.14-.66,1.09-1-.66-1.34-.74-1.09.67-.84-1.16-1.05-.83-1.28.31-.22-1.14-.44-1.48-1.28-.31.25-1.41-.13-1.33-1.09-.67.66-.95.75-1.33-.66-1.09,1.16-.83.82-1-.31-1.27,1.14-.23,1.47-.44.31-1.28,1.41.24,1.32-.14.66-1.09,1,.66,1.34.74,1.09-.67.84,1.16,1.06.83,1.28-.31.23,1.14.44,1.48,1.28.31-.24,1.41.14,1.33,1.09.67-.66,1-.75,1.33.66,1.09-1.16.84-.83,1,.31,1.28Z" style="fill:#f7be56"/><path d="M137.07,90l-2.88-1.18a37.81,37.81,0,0,1,4-8,13.87,13.87,0,0,1,7.62-5.6,19.52,19.52,0,0,1,4.44-.45,20,20,0,0,0,3.37-.27,9.07,9.07,0,0,0,6.6-5.84l2.95,1a12.1,12.1,0,0,1-8.93,7.9,23.27,23.27,0,0,1-3.91.33,16.85,16.85,0,0,0-3.75.36,10.87,10.87,0,0,0-5.86,4.39A35.82,35.82,0,0,0,137.07,90Z" style="fill:#ebf0f3"/><path d="M150.71,90.21l-14.8-14.79a2.46,2.46,0,0,0-3.46,0l-5.92,5.91a46.46,46.46,0,1,0,18.26,18.26l5.92-5.92a2.44,2.44,0,0,0,0-3.45Z" style="fill:#3a556a"/><path d="M150.71,90.22,147,86.49a2.36,2.36,0,0,1-.7,1.64l-5.93,5.93A46.47,46.47,0,0,1,66.8,149.35c-.37-.37-.75-.76-1.1-1.15a46.47,46.47,0,0,0,79.09-48.6l5.92-5.93A2.44,2.44,0,0,0,150.71,90.22Z" style="fill:#2f4859"/><path d="M178.4,68.71c-5.18,1-6.7,2-1.44,5.8-6.4-1.11-6,.62-3,4.95-4.33-3-6.07-3.37-4.95,3-3.81-5.26-4.78-3.74-5.8,1.44-1-5.18-2-6.7-5.81-1.44,1.11-6.39-.62-6-4.95-3,3-4.33,3.38-6.06-3-4.95,5.26-3.81,3.74-4.78-1.44-5.8,5.18-1,6.7-2,1.44-5.81,6.4,1.11,6-.62,3-4.95,4.33,3,6.06,3.38,4.95-3,3.81,5.26,4.78,3.75,5.81-1.44,1,5.19,2,6.7,5.8,1.44-1.11,6.4.62,6,4.95,3-3,4.33-3.38,6.06,3,4.95C171.7,66.71,173.22,67.68,178.4,68.71Z" style="fill:#e56353"/><path d="M171.44,68.71c-2.81.55-3.63,1.08-.77,3.15-3.47-.6-3.27.33-1.64,2.69-2.35-1.63-3.29-1.84-2.69,1.64-2.07-2.86-2.6-2-3.15.77-.56-2.81-1.09-3.63-3.15-.77.6-3.48-.34-3.27-2.69-1.64,1.62-2.36,1.83-3.29-1.64-2.69,2.86-2.07,2-2.6-.78-3.15,2.81-.56,3.64-1.09.78-3.15,3.47.6,3.27-.34,1.64-2.69,2.35,1.62,3.29,1.83,2.69-1.64,2.06,2.85,2.59,2,3.15-.78.55,2.81,1.09,3.64,3.15.78-.6,3.47.34,3.26,2.69,1.64-1.63,2.35-1.83,3.29,1.64,2.69-2.86,2.06-2,2.59.77,3.15Z" style="fill:#d15241"/><path d="M166.53,68.71c-1.14.22-1.47.44-.31,1.27-1.41-.24-1.32.14-.66,1.09-1-.66-1.34-.74-1.09.67-.84-1.16-1.05-.83-1.28.31-.22-1.14-.44-1.48-1.28-.31.25-1.41-.13-1.33-1.09-.67.66-.95.75-1.33-.66-1.09,1.16-.83.82-1-.31-1.27,1.14-.23,1.47-.44.31-1.28,1.41.24,1.32-.14.66-1.09,1,.66,1.34.74,1.09-.67.84,1.16,1.06.83,1.28-.31.23,1.14.44,1.48,1.28.31-.24,1.41.14,1.33,1.09.67-.66,1-.75,1.33.66,1.09-1.16.84-.83,1,.31,1.28Z" style="fill:#f7be56"/></svg>