<svg xmlns="http://www.w3.org/2000/svg" xmlns:xlink="http://www.w3.org/1999/xlink" viewBox="0 0 226 226"><defs><linearGradient id="a" y1="113" x2="226" y2="113" gradientUnits="userSpaceOnUse"><stop offset="0" stop-color="#339af0"/><stop offset="1" stop-color="#339af0"/></linearGradient></defs><rect width="226" height="226" rx="113" style="fill:url(#a)"/><path d="M118.34,69l-24-20h0l-9.5,29.71Z" style="fill:#d2d2d7"/><path d="M78.68,141.11,49,131.61l20-24Z" style="fill:#d2d2d7"/><path d="M147.32,84.89,177,94.39h0l-20,24Z" style="fill:#b9b9be"/><path d="M107.66,157l24,20,9.5-29.71Z" style="fill:#b9b9be"/><path d="M135.43,72.19l-25,39.32L90.61,153.73a46.52,46.52,0,0,0,44.82-81.54Z" style="fill:#7d8287"/><path d="M72.25,90.55a46.52,46.52,0,0,0,18.36,63.18l44.82-81.54A46.52,46.52,0,0,0,72.25,90.55Z" style="fill:#a0a0a5"/><path d="M150.94,86.09,147.68,49.9,135,66.79l-5.33,15.92C142.57,89.81,150.12,86.49,150.94,86.09Z" style="fill:#d2d2d7"/><path d="M147.68,49.9,115.39,66.55c.1.9,1.34,9,14.26,16.16Z" style="fill:#ebebf0"/><path d="M110.61,159.45,78.32,176.1l7.44-19.78,10.59-13C109.27,150.4,110.51,158.55,110.61,159.45Z" style="fill:#d2d2d7"/><path d="M78.32,176.1l-3.26-36.19c.82-.4,8.37-3.72,21.29,3.38Z" style="fill:#ebebf0"/><path d="M159.45,115.39c-.9.1-9,1.34-16.16,14.26s-3.78,20.47-3.38,21.29l36.18-3.26Z" style="fill:#d2d2d7"/><path d="M86.09,75.06,49.9,78.32l16.65,32.29c.9-.1,9-1.34,16.16-14.26s3.78-20.47,3.38-21.29Z" style="fill:#ebebf0"/><path d="M121.61,97.34l-11.22,14.17-6,17.07a17.82,17.82,0,0,0,17.17-31.24Z" style="fill:#d2d2d7"/><path d="M97.4,104.37a17.83,17.83,0,0,0,7,24.21l17.17-31.24a17.82,17.82,0,0,0-24.21,7Z" style="fill:#ebebf0"/><path d="M132.34,123.58a22.06,22.06,0,0,0-8.7-29.94l-4.57,2.09.51,5.31a13.6,13.6,0,0,1-13.11,23.84l-4.76,2.42.69,5a22.07,22.07,0,0,0,29.94-8.7Z" style="fill:#b9b9be"/><path d="M106.47,124.88A13.6,13.6,0,1,1,119.58,101l4.06-7.4a22,22,0,1,0-21.24,38.64Z" style="fill:#d2d2d7"/></svg>