<svg xmlns="http://www.w3.org/2000/svg" viewBox="0 0 512 513"><rect width="512" height="512" rx="256" style="fill:#2f7adb"/><path d="M288.23,371.66a207.48,207.48,0,0,0-193.56,84.1A254.93,254.93,0,0,0,256,513h0a255,255,0,0,0,169.26-64A206.42,206.42,0,0,0,288.23,371.66Z" transform="translate(0)" style="fill:#2f2e3c"/><path d="M288.23,371.66A206.61,206.61,0,0,0,131.9,416.45,280.65,280.65,0,0,1,370.63,486,256.58,256.58,0,0,0,425.26,449,206.42,206.42,0,0,0,288.23,371.66Z" transform="translate(0)" style="fill:#20202b"/><path d="M168.73,89.91a18.71,18.71,0,0,0-22.39-14.09L141.08,77A18.69,18.69,0,0,0,127,99.4l80.76,355.44a18.71,18.71,0,0,0,22.39,14.09l5.26-1.19a18.7,18.7,0,0,0,14.09-22.38Z" transform="translate(0)" style="fill:#544f57"/><path d="M226.82,450.51,146.05,95.07a18.69,18.69,0,0,1,7.51-19.46,18.36,18.36,0,0,0-7.22.21L141.08,77A18.7,18.7,0,0,0,127,99.4l80.76,355.44a18.7,18.7,0,0,0,22.39,14.09l5.26-1.19a18.7,18.7,0,0,0,6.6-2.93A18.67,18.67,0,0,1,226.82,450.51Z" transform="translate(0)" style="fill:#454045"/><path d="M322.83,190.82l25.5,66.54c-1.64,28,17,53.82,44.21,71l22.65-49.88L402,230.52Z" transform="translate(0)" style="fill:#c32430"/><path d="M254.46,80.12C224.25,87,191.17,101,154.25,122.79q-9.47,5.58-19.26,11.83l41.34,181.93q9.79-6.26,19.26-11.83c81.12-47.85,143.69-58.29,198.06-37.55L352.31,85.24C322.69,74,290.63,71.9,254.46,80.12Z" transform="translate(0)" style="fill:#da4a54"/><path d="M154.25,122.79q-9.47,5.58-19.26,11.83l41.34,181.93q9.79-6.26,19.26-11.83L154.25,122.79Z" transform="translate(0)" style="fill:#c32430"/><path d="M370.85,151.43a34,34,0,0,1-3.5,0L364.12,237l29.53,30.21a51.48,51.48,0,0,1-6.79,7.83c-22.43,21.71-5.85,59.87,25.33,58.36,15.26-.75,32.75-3.79,52.7-10.15L423.55,141.29C403.61,147.65,386.11,150.69,370.85,151.43Z" transform="translate(0)" style="fill:#da4a54"/></svg>