<svg xmlns="http://www.w3.org/2000/svg" xmlns:xlink="http://www.w3.org/1999/xlink" viewBox="0 0 226 226"><defs><linearGradient id="a" y1="113" x2="226" y2="113" gradientUnits="userSpaceOnUse"><stop offset="0" stop-color="#339af0"/><stop offset="0.59" stop-color="#339af0"/></linearGradient></defs><rect width="226" height="226" rx="113" style="fill:url(#a)"/><path d="M73.54,201a5.43,5.43,0,0,1-5.43-5.43V43.43a5.44,5.44,0,0,1,10.87,0V195.58A5.43,5.43,0,0,1,73.54,201Z" style="fill:#f95b53"/><path d="M176.08,116.79a5.44,5.44,0,0,1-4.73,8.15H73.54a5.43,5.43,0,0,1-5.43-5.43V43.43A5.43,5.43,0,0,1,73.54,38h97.81a5.44,5.44,0,0,1,4.73,8.15L155.87,81.47Z" style="fill:#ffc166"/><path d="M159.78,116.79a5.44,5.44,0,0,1-4.73,8.15H68.11V38h86.94a5.44,5.44,0,0,1,4.73,8.15L139.56,81.47Z" style="fill:#ffd64f"/></svg>