<svg xmlns="http://www.w3.org/2000/svg" xmlns:xlink="http://www.w3.org/1999/xlink" version="1.1" width="512" height="512" x="0" y="0" viewBox="0 0 512.001 512.001" style="enable-background:new 0 0 512 512" xml:space="preserve"><g>
<path style="" d="M286.972,380.011l-77.29-77.28l-79.99-79.99c-5.86-5.86-15.36-5.86-21.21,0l-66.13,66.12  c-19.76,19.76-34.32,53.27-39.93,91.92c-5.89,40.54-0.95,79.21,13.89,108.9c0.7,1.4,1.6,2.66,2.67,3.75c1.16,1.2,2.53,2.2,4.04,2.96  c20.51,10.25,45.13,15.51,71.57,15.51c11.92,0,24.21-1.07,36.65-3.23c36.6-6.36,70.09-21.81,89.61-41.32l66.12-66.12  C292.832,395.371,292.832,385.871,286.972,380.011z" fill="#c5c9f7" data-original="#c5c9f7"/>
<path style="" d="M286.972,401.231l-66.12,66.12c-19.52,19.51-53.01,34.96-89.61,41.32  c-12.44,2.16-24.73,3.23-36.65,3.23c-26.44,0-51.06-5.26-71.57-15.51c-1.51-0.76-2.88-1.76-4.04-2.96l190.7-190.7l77.29,77.28  C292.832,385.871,292.832,395.371,286.972,401.231z" fill="#a8aff1" data-original="#a8aff1"/>
<path style="" d="M241.596,249.542c-11.697-11.697-30.654-11.718-42.378-0.049l-44.487,44.284  c-21.899,22.5-34.199,51.901-34.199,83.101c0,4.2,1.8,8.101,4.499,10.501c2.701,2.999,6.301,4.499,10.501,4.499  c31.199,0,60.599-12.299,83.099-34.499l44.187-44.188c11.715-11.716,11.715-30.711,0-42.426L241.596,249.542z" fill="#e1e4fb" data-original="#e1e4fb"/>
<path style="" d="M252.231,260.177l31.8,31.8l-65.4,65.402c-22.5,22.2-51.899,34.499-83.099,34.499  c-4.2,0-7.8-1.5-10.501-4.499L252.231,260.177z" fill="#c5c9f7" data-original="#c5c9f7"/>
<path style="" d="M443.901,110.501L401.6,68.2c-5.7-6-15.3-6-21,0c-0.566,0.558,13.79-11.187-181.72,181.478  c43.106,42.369,29.693,29.185,32.353,31.8c2.616,2.663-10.529-10.714,31.499,32.054C457.717,120.212,443.333,132.063,443.901,131.5  C449.9,125.8,449.9,116.201,443.901,110.501z" fill="#bf6015" data-original="#bf6015"/>
<g>
	<path style="" d="M443.901,131.5c-0.564,0.559,13.754-11.227-181.169,182.032   c-42.027-42.768-28.882-29.391-31.499-32.054L422.901,89.501l21,21C449.9,116.201,449.9,125.8,443.901,131.5z" fill="#994c0f" data-original="#994c0f"/>
	<path style="" d="M507.503,89.501L422.6,4.6c-5.698-6-15.3-6-21.299,0L380.6,25.901   c-17.699,17.399-17.699,45.899,0,63.3l21.302,21.301l20.999,20.999c17.402,17.701,45.901,17.701,63.3,0.3l21.302-21   C513.501,104.801,513.501,95.201,507.503,89.501z M465.139,110.424c-3.838,3.838-8.174,4.395-10.459,4.395s-6.68-0.571-10.4-4.351   l-42.48-42.48c-3.926-3.867-4.482-8.188-4.482-10.43c0-2.256,0.557-6.577,4.307-10.269l10.488-10.767l63.545,63.56L465.139,110.424   z" fill="#994c0f" data-original="#994c0f"/>
</g>
<path style="" d="M507.503,89.501L465.198,47.2l-21.207,21.209l31.666,31.674l-10.518,10.342  c-3.838,3.838-8.174,4.395-10.459,4.395s-6.68-0.571-10.4-4.351l-21.174-21.174l-21.204,21.207l20.999,20.999  c17.402,17.701,45.901,17.701,63.3,0.3l21.302-21C513.501,104.801,513.501,95.201,507.503,89.501z" fill="#713708" data-original="#713708"/>
<g>
</g>
<g>
</g>
<g>
</g>
<g>
</g>
<g>
</g>
<g>
</g>
<g>
</g>
<g>
</g>
<g>
</g>
<g>
</g>
<g>
</g>
<g>
</g>
<g>
</g>
<g>
</g>
<g>
</g>
</g></svg>